HIERARCHY
ROOT root
{
	OFFSET	0	13.1	24.9
	CHANNELS 6  Xposition Yposition Zposition Xrotation Yrotation Zrotation
	JOINT spine_1
	{
		OFFSET	0	9.99999	0
		CHANNELS 3  Xrotation Yrotation Zrotation
		JOINT spine_2
		{
			OFFSET	0	112	-10
			CHANNELS 3  Xrotation Yrotation Zrotation
			JOINT spine_3
			{
				OFFSET	0	206.5	19.3
				CHANNELS 3  Xrotation Yrotation Zrotation
				JOINT spine_4
				{
					OFFSET	0	110.4	14.6
					CHANNELS 3  Xrotation Yrotation Zrotation
					JOINT neck_1
					{
						OFFSET	0	71.8	-50.3
						CHANNELS 3  Xrotation Yrotation Zrotation
						JOINT neck_2
						{
							OFFSET	0	86.2	-25.8
							CHANNELS 3  Xrotation Yrotation Zrotation
							JOINT head_ee
							{
								OFFSET	0	179.8	-8.7
								CHANNELS 3  Xrotation Yrotation Zrotation
								End Site
								{
									OFFSET	1	0	0
								}
							}
						}
					}
					JOINT left_clavicle
					{
						OFFSET	-43.2	22.4	-70.8
						CHANNELS 3  Xrotation Yrotation Zrotation
						JOINT left_shoulder
						{
							OFFSET	-93.9	-5.79999	48.7
							CHANNELS 3  Xrotation Yrotation Zrotation
							JOINT left_elbow
							{
								OFFSET	-291.4	-30.8	15.2
								CHANNELS 3  Xrotation Yrotation Zrotation
								JOINT left_lowarm_twist
								{
									OFFSET	-110.7	-3.89999	13.6
									CHANNELS 3  Xrotation Yrotation Zrotation
									JOINT left_hand
									{
										OFFSET	-110.7	-3.89999	13.6
										CHANNELS 3  Xrotation Yrotation Zrotation
										JOINT left_ee
										{
											OFFSET	-80.8	-5.10001	12.1
											CHANNELS 3  Xrotation Yrotation Zrotation
											End Site
											{
												OFFSET	1	0	0
											}
										}
									}
								}
							}
						}
					}
					JOINT right_clavicle
					{
						OFFSET	43.2	22.4	-70.8
						CHANNELS 3  Xrotation Yrotation Zrotation
						JOINT right_shoulder
						{
							OFFSET	93.9	-5.79999	48.7
							CHANNELS 3  Xrotation Yrotation Zrotation
							JOINT right_elbow
							{
								OFFSET	291.4	-30.8	15.2
								CHANNELS 3  Xrotation Yrotation Zrotation
								JOINT right_lowarm_twist
								{
									OFFSET	110.7	-3.89999	13.6
									CHANNELS 3  Xrotation Yrotation Zrotation
									JOINT right_hand
									{
										OFFSET	110.7	-3.89999	13.6
										CHANNELS 3  Xrotation Yrotation Zrotation
										JOINT right_ee
										{
											OFFSET	80.8	-5.10001	12.1
											CHANNELS 3  Xrotation Yrotation Zrotation
											End Site
											{
												OFFSET	1	0	0
											}
										}
									}
								}
							}
						}
					}
				}
			}
		}
	}
	JOINT left_hip
	{
		OFFSET	-82.8	-127.5	0.300001
		CHANNELS 3  Xrotation Yrotation Zrotation
		JOINT left_knee
		{
			OFFSET	-28.2	-396.7	2.2
			CHANNELS 3  Xrotation Yrotation Zrotation
			JOINT left_ankle
			{
				OFFSET	-11.7	-411.3	35.4
				CHANNELS 3  Xrotation Yrotation Zrotation
				JOINT left_toes
				{
					OFFSET	0	-60	-88.6
					CHANNELS 3  Xrotation Yrotation Zrotation
					JOINT left_foot_ee
					{
						OFFSET	-22.5	-16.5	-42.2
						CHANNELS 3  Xrotation Yrotation Zrotation
						End Site
						{
							OFFSET	1	0	0
						}
					}
				}
			}
		}
	}
	JOINT right_hip
	{
		OFFSET	82.8	-127.5	0.300001
		CHANNELS 3  Xrotation Yrotation Zrotation
		JOINT right_knee
		{
			OFFSET	28.2	-396.7	2.2
			CHANNELS 3  Xrotation Yrotation Zrotation
			JOINT right_ankle
			{
				OFFSET	11.7	-411.3	35.4
				CHANNELS 3  Xrotation Yrotation Zrotation
				JOINT right_toes
				{
					OFFSET	0	-60	-88.6
					CHANNELS 3  Xrotation Yrotation Zrotation
					JOINT right_foot_ee
					{
						OFFSET	22.5	-16.5	-42.2
						CHANNELS 3  Xrotation Yrotation Zrotation
						End Site
						{
							OFFSET	1	0	0
						}
					}
				}
			}
		}
	}
}
MOTION
Frames: 6
Frame Time: 0.02
1437.17 720.651 -1405.77 -22.3102 75.6189 23.5394 1.8325 0.0781814 0.254612 1.83253 0.0618214 0.259071 1.83282 0.0145037 0.26595 1.83272 0.0563233 0.260321 -19.0627 6.82254 5.18994 -19.1251 10.4267 7.56581 -0.0 0.0 -0.0 -8.40881 23.9952 -8.79352 -12.0293 -30.1531 89.9659 2.9116 -55.2546 1.52416 -71.5438 -6.74317 5.31344 3.90728 -2.87104 25.9371 -0.0 0.0 -0.0 10.9564 10.759 -21.9346 -19.7653 -0.573635 -62.3215 1.07832 28.1091 -0.269954 81.0759 3.96315 8.66925 1.12745 -26.8015 -17.0235 0.0 0.0 0.0 6.42252 1.28226 -0.779085 6.18435 -0.303603 -0.899701 15.7463 12.7924 -2.19955 -14.0293 0.0 0.0 -0.0 0.0 -0.0 23.418 6.93323 -0.299235 -54.8262 1.66796 -7.93131 15.9687 -21.1161 2.2834 -29.8682 0.0 0.0 0.0 0.0 0.0 
1426.85 719.357 -1404.38 -23.8481 75.7576 24.8417 1.71678 0.0435686 0.487893 1.71691 0.0124348 0.489676 1.71702 -0.0762994 0.483855 1.7167 0.00107317 0.489833 -15.9052 5.95222 2.77603 -15.9747 9.80326 4.67844 -0.0 0.0 -0.0 -7.76927 23.7382 -7.97392 -14.1398 -32.7264 88.7251 3.37563 -59.1059 1.91434 -71.4222 -6.72764 5.31276 3.58444 -3.87732 23.1129 -0.0 0.0 -0.0 10.7538 9.21688 -21.4946 -19.6426 -3.29705 -62.3138 0.983818 25.982 -0.226975 80.4887 3.89501 8.63708 0.349957 -29.1579 -13.326 0.0 0.0 0.0 5.54557 0.282622 -0.268748 6.84924 -0.341999 -0.994396 17.8327 11.9055 -2.46643 -14.6768 0.0 0.0 -0.0 0.0 -0.0 25.3185 5.71002 0.171196 -48.415 1.08694 -7.13333 11.3256 -21.7658 1.65105 -36.0942 0.0 0.0 0.0 0.0 0.0 
1419.75 716.461 -1399.32 -22.2005 76.0106 22.8396 1.45056 0.0519878 0.648662 1.4508 0.0106072 0.650656 1.45094 -0.110182 0.641347 1.45036 -0.00751297 0.650699 -15.6985 6.15881 1.84862 -15.7966 10.7235 3.86291 -0.0 0.0 -0.0 -7.94874 24.0028 -8.1358 -13.4401 -31.9602 89.1553 3.87634 -62.4735 2.35156 -73.4316 -6.98445 5.31985 3.72368 -4.55819 23.8396 -0.0 0.0 -0.0 10.3798 7.45697 -20.6705 -20.8268 -1.91505 -61.7551 0.910178 24.2691 -0.195704 80.4615 3.89186 8.63557 0.234465 -29.1424 -12.6827 0.0 0.0 0.0 5.06107 0.0329999 0.461731 5.90711 -0.28792 -0.860089 20.505 13.7444 -2.81205 -17.7534 0.0 0.0 -0.0 0.0 -0.0 25.7276 3.75764 0.799989 -40.6809 0.51065 -6.09332 14.4578 -21.6341 2.08364 -39.7249 0.0 0.0 0.0 0.0 0.0 
1411.05 713.733 -1398.88 -23.8604 75.7649 24.3693 1.28301 0.0847045 0.749512 1.28332 0.0368408 0.753383 1.28385 -0.105623 0.746852 1.28307 0.0136503 0.75416 -14.5017 5.56887 1.76651 -14.5665 9.57492 3.47508 -0.0 0.0 -0.0 -8.91125 24.2849 -9.40116 -15.9477 -33.7118 85.0244 5.60056 -70.1499 3.93407 -71.5171 -6.73976 5.31329 3.22244 -2.98544 20.8635 -0.0 0.0 -0.0 10.3527 7.18652 -20.6097 -19.8503 -6.98457 -61.5726 0.851749 22.8762 -0.172335 81.2984 3.98906 8.68126 -0.136576 -28.9781 -10.5875 0.0 0.0 0.0 5.1945 -0.494215 0.613379 6.29209 -0.30975 -0.915076 21.3547 12.7791 -2.91196 -18.3997 0.0 0.0 -0.0 0.0 -0.0 26.9837 1.25149 1.98467 -37.8784 0.337338 -5.69897 17.1927 -14.5835 2.39579 -40.2066 0.0 0.0 0.0 0.0 0.0 
1400.3 716.383 -1395.45 -25.4366 76.7913 25.753 1.00519 -0.039932 0.919488 1.00566 -0.0983581 0.915085 1.00414 -0.273155 0.878889 1.00309 -0.130929 0.910995 -13.5437 6.04004 -0.423099 -13.641 11.7689 1.46248 -0.0 0.0 -0.0 -10.6921 23.8115 -12.197 -17.0349 -32.2639 86.1702 13.174 -81.2123 11.3071 -72.6822 -6.88865 5.31826 3.14674 -2.79007 20.401 -0.0 0.0 -0.0 10.1293 5.415 -20.1053 -19.9543 -8.16213 -60.9626 0.688988 18.8451 -0.114341 83.2038 4.21277 8.77995 -0.335271 -28.9422 -9.48895 0.0 0.0 0.0 5.10891 0.309393 1.57487 4.63185 -0.218261 -0.67694 23.9859 12.1547 -3.22659 -18.9058 0.0 0.0 -0.0 0.0 -0.0 25.8318 4.5066 1.32673 -31.0812 -0.00113829 -4.71181 13.9376 -14.9329 1.96862 -40.0461 0.0 0.0 0.0 0.0 0.0 
1389.35 711.706 -1396.83 -22.8338 77.9701 22.2528 0.834868 -0.135441 1.3086 0.835795 -0.21843 1.29734 0.830951 -0.46853 1.22935 0.828942 -0.268514 1.2879 -13.5343 5.39238 -0.683891 -13.6133 10.6957 1.01073 -0.0 0.0 -0.0 -12.6036 23.7972 -15.11 -15.7166 -34.8661 86.7711 38.85 -86.7853 36.8763 -73.5867 -7.00428 5.32001 3.01284 -1.9588 19.7869 -0.0 0.0 -0.0 10.0033 4.09418 -19.8098 -20.3243 -9.52766 -61.0258 0.620147 17.0772 -0.0931096 84.419 4.35709 8.83899 -0.826857 -28.8801 -6.7959 0.0 0.0 0.0 2.80577 -1.4396 2.3543 4.53343 -0.213055 -0.662742 26.6545 10.3318 -3.52797 -20.8496 0.0 0.0 -0.0 0.0 -0.0 26.3812 3.54112 1.92073 -26.3532 -0.166384 -4.00522 14.9359 -9.50167 2.08546 -39.6535 0.0 0.0 0.0 0.0 0.0 
